<?xml version="1.0" encoding="UTF-8"?>
<svg version="1.1" xmlns="http://www.w3.org/2000/svg" width="500" height="500">
<path d="M0 0 C0.67546875 0.56589844 1.3509375 1.13179687 2.046875 1.71484375 C14.0969104 11.83378374 24.6930534 23.34541081 34 36 C34.63929443 36.85609863 34.63929443 36.85609863 35.29150391 37.72949219 C45.40458569 51.29778126 53.8597595 65.66118296 61 81 C61.50080078 82.07411133 61.50080078 82.07411133 62.01171875 83.16992188 C70.87839358 102.48296648 76.63809676 123.03522402 80 144 C80.11714355 144.72300293 80.23428711 145.44600586 80.35498047 146.19091797 C85.42291448 179.33204367 81.96488113 213.90464546 73 246 C72.75830078 246.87897949 72.51660156 247.75795898 72.26757812 248.66357422 C62.86789515 281.9381972 44.20743162 311.34852944 21.8984375 337.40136719 C19.3022206 340.43583437 16.79324536 343.50971338 14.375 346.6875 C7.72166976 355.34789185 0.16651731 363.74430409 -8 371 C-8.66 371 -9.32 371 -10 371 C-10 371.66 -10 372.32 -10 373 C-13.41466855 376.28422054 -17.2565902 379.10115769 -21 382 C-22.01344482 382.79108154 -22.01344482 382.79108154 -23.04736328 383.59814453 C-74.4346985 423.45072437 -138.15950114 439.54208303 -202.40673828 431.48730469 C-237.20020909 426.76874458 -272.1078208 414.09890727 -301 394 C-301.76006348 393.47148437 -302.52012695 392.94296875 -303.30322266 392.3984375 C-313.2444569 385.4134596 -322.69470122 378.1185789 -331.36816406 369.60107422 C-333.14616861 367.85658682 -334.94435341 366.13418838 -336.7421875 364.41015625 C-344.41403106 356.977061 -351.3960773 349.29882091 -357.74121094 340.703125 C-358.97069396 339.03965069 -360.22216212 337.39472448 -361.4765625 335.75 C-382.9465296 307.14182218 -396.47416396 273.01313389 -403 238 C-403.24556641 236.70618408 -403.24556641 236.70618408 -403.49609375 235.38623047 C-408.14702499 209.7148197 -407.86011153 181.60647347 -403 156 C-402.83371094 155.10780762 -402.66742188 154.21561523 -402.49609375 153.29638672 C-398.24726966 131.23790829 -390.88367325 110.14833972 -381 90 C-380.66500488 89.31615234 -380.33000977 88.63230469 -379.98486328 87.92773438 C-367.84278182 63.48643153 -349.970468 42.34116941 -332 22 C-330.84371094 20.68708984 -330.84371094 20.68708984 -329.6640625 19.34765625 C-321.37085253 10.05354163 -312.7800878 1.72456734 -303 -6 C-302.04738281 -6.78117187 -301.09476562 -7.56234375 -300.11328125 -8.3671875 C-290.68267312 -15.92616405 -280.47507901 -22.00255443 -270 -28 C-269.32678711 -28.38961914 -268.65357422 -28.77923828 -267.95996094 -29.18066406 C-188.48860902 -74.85909093 -85.79073609 -64.31882544 0 0 Z " fill="#8B51FE" transform="translate(412,62)"/>
<path d="M0 0 C0 3.35141024 -0.56304365 4.28249409 -2.2734375 7.078125 C-2.76384521 7.89780762 -3.25425293 8.71749023 -3.75952148 9.56201172 C-4.29262939 10.44904785 -4.8257373 11.33608398 -5.375 12.25 C-21.07587673 39.0543237 -32.07301057 69.94350176 -35 101 C-35.16435547 102.68802734 -35.16435547 102.68802734 -35.33203125 104.41015625 C-35.66307184 108.60775088 -35.8613889 112.79222108 -36 117 C-36.03399902 117.97179199 -36.06799805 118.94358398 -36.10302734 119.94482422 C-37.61505903 170.36378934 -24.69859724 221.64156617 5 263 C5.44214844 263.6172998 5.88429687 264.23459961 6.33984375 264.87060547 C12.32490056 273.177102 18.57452682 281.00978161 25.60546875 288.453125 C27.55120818 290.52265535 29.38682958 292.6186913 31.1875 294.8125 C34.43475181 298.63765256 38.17420397 301.76960931 42 305 C42.90234375 305.80179687 43.8046875 306.60359375 44.734375 307.4296875 C79.31410616 337.9206752 123.47155463 356.93479188 169 363 C169.68690918 363.09498779 170.37381836 363.18997559 171.08154297 363.2878418 C179.96970518 364.35162033 188.93588352 364.28713343 197.875 364.3125 C198.75761505 364.31511841 199.6402301 364.31773682 200.54959106 364.32043457 C216.34438642 364.32543208 231.4631898 363.00115072 247 360 C247.78133301 359.86110352 248.56266602 359.72220703 249.36767578 359.57910156 C269.91765199 355.88715155 290.57572416 347.71660622 309 338 C309.89017822 337.53327881 309.89017822 337.53327881 310.79833984 337.05712891 C331.20092275 326.21352353 349.36071108 311.91584157 366 296 C366.33 296.99 366.66 297.98 367 299 C350.35976272 317.21697719 350.35976272 317.21697719 346 321 C345.34 321 344.68 321 344 321 C344 321.66 344 322.32 344 323 C340.58533145 326.28422054 336.7434098 329.10115769 333 332 C331.98655518 332.79108154 331.98655518 332.79108154 330.95263672 333.59814453 C279.5653015 373.45072437 215.84049886 389.54208303 151.59326172 381.48730469 C116.79979091 376.76874458 81.8921792 364.09890727 53 344 C52.23993652 343.47148437 51.47987305 342.94296875 50.69677734 342.3984375 C40.7555431 335.4134596 31.30529878 328.1185789 22.63183594 319.60107422 C20.85383139 317.85658682 19.05564659 316.13418838 17.2578125 314.41015625 C9.58596894 306.977061 2.6039227 299.29882091 -3.74121094 290.703125 C-4.97069396 289.03965069 -6.22216212 287.39472448 -7.4765625 285.75 C-28.9465296 257.14182218 -42.47416396 223.01313389 -49 188 C-49.24556641 186.70618408 -49.24556641 186.70618408 -49.49609375 185.38623047 C-54.14702499 159.7148197 -53.86011153 131.60647347 -49 106 C-48.83371094 105.10780762 -48.66742188 104.21561523 -48.49609375 103.29638672 C-44.24726966 81.23790829 -36.88367325 60.14833972 -27 40 C-26.66500488 39.31615234 -26.33000977 38.63230469 -25.98486328 37.92773438 C-9.50352648 4.75176324 -9.50352648 4.75176324 0 0 Z " fill="#BAB8F8" transform="translate(58,112)"/>
<path d="M0 0 C2.17418114 1.58631242 4.17250803 3.30151713 6.1953125 5.078125 C7.23562799 5.96252934 8.2774101 6.84521017 9.3203125 7.7265625 C12.34574971 10.29323498 15.34931228 12.88433853 18.34863281 15.48144531 C21.28893961 18.02369894 24.24256692 20.55034238 27.1953125 23.078125 C28.36333867 24.0793601 29.53130734 25.08066228 30.69921875 26.08203125 C33.01856851 28.07013776 35.33895924 30.05701938 37.66015625 32.04296875 C44.32300084 37.74540331 50.96402955 43.47198189 57.58740234 49.22021484 C63.52419728 54.36974249 69.48984705 59.48512734 75.46142578 64.59423828 C77.20542636 66.0867806 78.94858354 67.58030127 80.69140625 69.07421875 C81.27051758 69.57058838 81.84962891 70.06695801 82.44628906 70.57836914 C83.6035134 71.57066801 84.76041952 72.56333813 85.91699219 73.55639648 C88.98685309 76.19111458 92.06422898 78.81637698 95.15234375 81.4296875 C95.79751953 81.97753906 96.44269531 82.52539062 97.10742188 83.08984375 C98.34992415 84.14462985 99.59463025 85.19682684 100.84179688 86.24609375 C105.92490756 90.56938835 105.92490756 90.56938835 106.5390625 93.99609375 C106.77119326 97.36779298 106.88682836 100.00064679 105.01953125 102.91015625 C103.17598771 104.78889871 101.24914329 106.43078155 99.1953125 108.078125 C98.3496875 108.77679688 97.5040625 109.47546875 96.6328125 110.1953125 C94.76923757 111.72534987 92.89786022 113.24592424 91.01953125 114.7578125 C88.33737584 116.96140906 85.75904829 119.23856325 83.1953125 121.578125 C79.79932568 124.67367696 76.33359719 127.62963707 72.7578125 130.515625 C67.9839095 134.37637637 63.46142822 138.45249575 58.9453125 142.609375 C55.38347021 145.80693796 51.66965417 148.79200843 47.9453125 151.796875 C45.11431672 154.14531468 42.40147652 156.58722402 39.6953125 159.078125 C35.2254613 163.19191409 30.60486357 167.04899797 25.87890625 170.86328125 C23.24822693 173.03445327 20.71588826 175.28053857 18.1953125 177.578125 C0.5798037 193.61528422 0.5798037 193.61528422 -8.2890625 193.47265625 C-12.356125 192.83480949 -14.03706122 191.0586456 -16.8046875 188.078125 C-18.23130969 185.22488063 -18.11502618 183.24357951 -17.8046875 180.078125 C-15.20000946 176.34774703 -12.24048908 173.63108835 -8.6796875 170.828125 C-4.95164053 167.84173194 -1.33101226 164.800262 2.1953125 161.578125 C5.59129932 158.48257304 9.05702781 155.52661293 12.6328125 152.640625 C16.43618753 149.56475912 20.09613902 146.39059334 23.6953125 143.078125 C28.1651637 138.96433591 32.78576143 135.10725203 37.51171875 131.29296875 C40.14239807 129.12179673 42.67473674 126.87571143 45.1953125 124.578125 C48.59129932 121.48257304 52.05702781 118.52661293 55.6328125 115.640625 C60.48819871 111.7149936 65.10887666 107.58361255 69.6875 103.33984375 C72.1953125 101.078125 72.1953125 101.078125 75.015625 98.91015625 C75.73492187 98.30558594 76.45421875 97.70101562 77.1953125 97.078125 C77.1953125 96.418125 77.1953125 95.758125 77.1953125 95.078125 C75.62244566 93.66374094 73.98391254 92.32208099 72.3203125 91.015625 C68.50695688 87.96786635 64.79722441 84.87312159 61.1953125 81.578125 C57.79932568 78.48257304 54.33359719 75.52661293 50.7578125 72.640625 C45.98535047 68.78103897 41.46422141 64.70612509 36.94921875 60.55078125 C33.36323966 57.33102981 29.62829758 54.31907324 25.87890625 51.29296875 C23.24822693 49.12179673 20.71588826 46.87571143 18.1953125 44.578125 C14.77791878 41.46353832 11.290089 38.4862588 7.6953125 35.578125 C3.18437824 31.92611335 -1.15417495 28.12990837 -5.44140625 24.21875 C-8.31523113 21.61568217 -11.25429647 19.09423543 -14.2109375 16.5859375 C-16.65923423 14.26965677 -17.74243647 12.5553829 -18.1796875 9.203125 C-17.71276355 5.31209212 -16.55134405 3.82478155 -13.8046875 1.078125 C-9.84083445 -1.89476478 -4.38679232 -2.24087227 0 0 Z " fill="#010002" transform="translate(333.8046875,145.921875)"/>
<path d="M0 0 C3.14344435 1.74635797 5.46862726 3.46862726 8 6 C8.60521066 9.36228142 8.70813605 11.80260632 6.92578125 14.81640625 C-1.01840722 24.40145985 -11.80572632 32.05289197 -21.421875 39.85546875 C-24.871349 42.72480394 -28.1711959 45.7453589 -31.48828125 48.765625 C-34.00151232 51.00134533 -36.57311479 53.13377682 -39.1875 55.25 C-44.32694428 59.41084769 -49.32326152 63.71734489 -54.30908203 68.05932617 C-58.88258405 72.03958097 -63.49176138 75.97376529 -68.12719727 79.8815918 C-74.45102449 85.21594334 -80.7245289 90.60892812 -87 96 C-83.19306614 99.90768448 -79.20077773 103.51002062 -75.0625 107.0625 C-74.40717285 107.62759277 -73.7518457 108.19268555 -73.07666016 108.77490234 C-71.05294305 110.51874885 -69.02671092 112.25963445 -67 114 C-65.78774685 115.04295298 -64.57550674 116.08592111 -63.36328125 117.12890625 C-57.23061127 122.39950293 -51.07257987 127.63923554 -44.89404297 132.85595703 C-40.31989291 136.72106537 -35.77370099 140.61816847 -31.23046875 144.51953125 C-26.80774262 148.31464214 -22.36314447 152.08305415 -17.90991211 155.84228516 C-13.20025637 159.82168935 -8.51799676 163.83260108 -3.84375 167.85351562 C-3.02583984 168.55637695 -3.02583984 168.55637695 -2.19140625 169.2734375 C-1.40080811 169.9535791 -1.40080811 169.9535791 -0.59423828 170.64746094 C1.03530696 172.02995414 2.69031663 173.37759956 4.34765625 174.7265625 C7.58207824 177.49892421 7.8988125 178.10617712 8.375 182.3125 C8 186 8 186 5.625 188.875 C1.73447948 192.02446899 -1.0538751 192.76627251 -6.0234375 192.73046875 C-11.90546493 191.28697908 -16.09955844 186.5200721 -20.40820312 182.46630859 C-22.74088962 180.31751794 -25.20931025 178.35265143 -27.6875 176.375 C-32.08726497 172.79660939 -36.29581432 169.05169182 -40.48828125 165.234375 C-43.88457506 162.21309963 -47.4159298 159.37424067 -50.94921875 156.515625 C-55.18257077 153.02487122 -59.30662985 149.41361199 -63.44091797 145.80664062 C-67.17961514 142.55327802 -70.95894837 139.36772494 -74.8125 136.25 C-78.30235888 133.42512161 -81.68010514 130.52282421 -85 127.5 C-89.20829029 123.6688678 -93.5571093 120.06024518 -97.9765625 116.4765625 C-101.55853929 113.54248849 -105.09922565 110.56372327 -108.625 107.5625 C-109.54974121 106.78169067 -109.54974121 106.78169067 -110.49316406 105.98510742 C-114.30820999 102.72512381 -115.78510313 101.38489097 -116.5625 96.375 C-116.49265305 92.4984945 -115.38052018 90.80498382 -112.6875 88.0625 C-108.63182495 84.40388404 -104.37922779 80.9702814 -100.12109375 77.55078125 C-96.50279253 74.62357673 -93.00511009 71.56100575 -89.5 68.5 C-85.11809989 64.67658817 -80.70939091 60.90844639 -76.1875 57.25 C-72.69764112 54.42512161 -69.31989486 51.52282421 -66 48.5 C-61.80270966 44.67829137 -57.46289769 41.08525811 -53.05078125 37.515625 C-49.47943859 34.57075346 -45.9877745 31.54291873 -42.5 28.5 C-37.26884017 23.9360598 -31.9628473 19.49257973 -26.5625 15.12890625 C-23.86480897 12.88768428 -21.27461224 10.55516969 -18.6875 8.1875 C-7.83166946 -1.59129539 -7.83166946 -1.59129539 0 0 Z " fill="#010002" transform="translate(190,145)"/>
<path d="M0 0 C3 2.5 3 2.5 5 5 C5.495 5.495 5.495 5.495 6 6 C7.59920144 15.14986142 4.25432804 23.83669052 1.64453125 32.46484375 C0.09052907 37.60624783 -1.23892778 42.78014499 -2.5 48 C-4.39597031 55.77615946 -6.5334069 63.4599821 -8.76953125 71.14453125 C-10.48047378 77.06702461 -12.03821404 83.01145002 -13.5 89 C-15.15983498 95.79938829 -16.97739889 102.53109671 -18.9375 109.25 C-21.13640734 116.79394365 -23.12874394 124.36830645 -25 132 C-27.08411736 140.49982285 -29.3557187 148.91798876 -31.8137207 157.31689453 C-33.83608218 164.27754955 -35.61523913 171.28439734 -37.26391602 178.34277344 C-38.86322673 185.01318832 -40.4602589 191.49896036 -46 196 C-50.49269144 197.49756381 -54.32510608 197.68518388 -58.75 195.875 C-61.60540721 193.49549399 -62.70470446 191.47684592 -64 188 C-64.38002874 183.03811532 -63.28401682 178.76994506 -61.875 174.0625 C-61.41216839 172.46148385 -60.95132844 170.85989097 -60.4921875 169.2578125 C-60.24823242 168.40864258 -60.00427734 167.55947266 -59.75292969 166.68457031 C-58.42652822 161.95528673 -57.22087536 157.19489425 -56 152.4375 C-54.28170419 145.77405151 -52.49544694 139.14827951 -50.5 132.5625 C-48.1292647 124.73047002 -46.17996782 116.8093422 -44.23046875 108.86352539 C-42.62146191 102.35272048 -40.84786373 95.92621056 -38.89453125 89.51171875 C-37.05709254 83.39082418 -35.52246517 77.20578441 -34 71 C-32.1458193 63.44209592 -30.16512992 55.9637286 -27.89672852 48.52050781 C-26.03278073 42.31478943 -24.48398861 36.04127606 -22.9375 29.75 C-22.18322635 26.72298385 -21.4262238 23.69667464 -20.66699219 20.67089844 C-20.25844265 19.0349058 -19.8543647 17.39777834 -19.45800781 15.75878906 C-16.52755137 3.76947743 -16.52755137 3.76947743 -10.99609375 -0.16796875 C-7.19266439 -1.75335124 -3.81803721 -1.39422707 0 0 Z " fill="#010103" transform="translate(289,143)"/>
<path d="M0 0 C0.79719955 0.00222061 1.59439911 0.00444122 2.41575623 0.00672913 C3.31661453 0.00680466 4.21747284 0.00688019 5.14562988 0.00695801 C6.12478867 0.01211929 7.10394745 0.01728058 8.11277771 0.02259827 C9.11018478 0.02401321 10.10759186 0.02542816 11.13522339 0.02688599 C14.3348027 0.03250337 17.53431315 0.04505881 20.73387146 0.05775452 C22.89728191 0.06276728 25.06069345 0.06733057 27.22410583 0.07142639 C32.53988471 0.08247845 37.85562317 0.09923348 43.17137146 0.12025452 C42.56760768 5.75538311 41.5780688 10.49346514 40.17137146 16.12025452 C31.59137146 16.12025452 23.01137146 16.12025452 14.17137146 16.12025452 C13.84137146 19.42025452 13.51137146 22.72025452 13.17137146 26.12025452 C12.75706552 28.43715441 12.30251918 30.74745163 11.79637146 33.04603577 C11.53340271 34.25453186 11.27043396 35.46302795 10.99949646 36.70814514 C10.72621521 37.93726624 10.45293396 39.16638733 10.17137146 40.43275452 C9.62955597 42.90798236 9.08788355 45.38324153 8.54637146 47.85853577 C8.30660583 48.9417511 8.06684021 50.02496643 7.81980896 51.14100647 C7.24220905 53.79479099 6.7040062 56.45708081 6.17137146 59.12025452 C12.77137146 59.12025452 19.37137146 59.12025452 26.17137146 59.12025452 C25.71047693 65.41914649 25.19009399 70.06408692 23.17137146 76.12025452 C15.91137146 76.12025452 8.65137146 76.12025452 1.17137146 76.12025452 C0.84137146 79.09025452 0.51137146 82.06025452 0.17137146 85.12025452 C-0.52103659 89.30690782 -1.36665115 93.4602776 -2.20362854 97.62025452 C-2.51687073 99.2348053 -2.51687073 99.2348053 -2.83644104 100.88197327 C-3.04784729 101.94029358 -3.25925354 102.99861389 -3.47706604 104.08900452 C-3.6644635 105.03195374 -3.85186096 105.97490295 -4.04493713 106.94642639 C-5.06362223 111.07194236 -6.48484279 115.08889728 -7.82862854 119.12025452 C-14.09862854 119.12025452 -20.36862854 119.12025452 -26.82862854 119.12025452 C-26.21395484 113.58819124 -25.60972702 108.55478075 -24.46510315 103.18397522 C-24.33136229 102.55053381 -24.19762142 101.9170924 -24.0598278 101.2644558 C-23.62095481 99.1907591 -23.17599344 97.11842092 -22.73097229 95.04603577 C-22.41716178 93.56888974 -22.10375002 92.09165896 -21.79071045 90.61434937 C-20.95862819 86.69262394 -20.12136749 82.77202195 -19.28295135 78.85164642 C-18.42082451 74.81662401 -17.56306499 70.78067386 -16.70509338 66.74476624 C-15.68647838 61.95408829 -14.66757452 57.16347362 -13.64656067 52.37330627 C-11.77513384 43.59111216 -9.91838185 34.80613857 -8.09034729 26.01478577 C-7.80365425 24.63855797 -7.80365425 24.63855797 -7.51116943 23.23452759 C-6.82739217 19.95112759 -6.14364124 16.66774263 -5.46702576 13.38285828 C-5.03084426 11.26600205 -4.59038761 9.15008029 -4.14894104 7.03431702 C-3.79726868 5.33202942 -3.79726868 5.33202942 -3.43849182 3.59535217 C-2.59464115 0.17062914 -2.59464115 0.17062914 0 0 Z " fill="#F2E8E6" transform="translate(299.82862854003906,199.87974548339844)"/>
<path d="M0 0 C14.85 0 29.7 0 45 0 C44 11 44 11 42 15 C33.75 15 25.5 15 17 15 C16.608125 17.495625 16.21625 19.99125 15.8125 22.5625 C14.56026502 30.25854264 13.02985674 37.88095092 11.375 45.5 C11.15690674 46.50877197 10.93881348 47.51754395 10.71411133 48.55688477 C9.13092074 55.73815852 9.13092074 55.73815852 8 58 C14.93 58 21.86 58 29 58 C27.85534591 66.01257862 27.85534591 66.01257862 27 69.875 C26.835 70.63554687 26.67 71.39609375 26.5 72.1796875 C26 74 26 74 25 75 C23.43827255 75.08685603 21.87270656 75.10702219 20.30859375 75.09765625 C19.36435547 75.09443359 18.42011719 75.09121094 17.44726562 75.08789062 C16.45404297 75.07951172 15.46082031 75.07113281 14.4375 75.0625 C13.44041016 75.05798828 12.44332031 75.05347656 11.41601562 75.04882812 C8.94395151 75.03700007 6.47200482 75.02051849 4 75 C3.9071875 76.14597656 3.814375 77.29195313 3.71875 78.47265625 C2.9751961 85.15547784 1.44863118 91.68632058 -0.01123047 98.2409668 C-0.50404073 100.45565908 -0.98884948 102.67199716 -1.47265625 104.88867188 C-3.8566229 115.7132458 -3.8566229 115.7132458 -5 118 C-11.27 118 -17.54 118 -24 118 C-23.39434121 108.66522032 -21.63263848 99.75676031 -19.6484375 90.64453125 C-19.30736462 89.05551192 -18.96685187 87.46637228 -18.62686157 85.87712097 C-17.73112602 81.697748 -16.82756542 77.52010475 -15.92236328 73.34277344 C-15.02792575 69.20809434 -14.14134622 65.07173236 -13.25390625 60.93554688 C-8.88899808 40.61208903 -4.45237318 20.30445774 0 0 Z " fill="#F2E8E6" transform="translate(202,163)"/>
<path d="M0 0 C0.9343689 -0.00630432 1.86873779 -0.01260864 2.8314209 -0.019104 C4.34862732 -0.01303131 4.34862732 -0.01303131 5.89648438 -0.00683594 C6.93212524 -0.00874939 7.96776611 -0.01066284 9.03479004 -0.01263428 C11.22713463 -0.01399691 13.41948726 -0.01029508 15.61181641 -0.00195312 C18.97642054 0.00874514 22.34049069 -0.00184597 25.70507812 -0.01464844 C27.83138139 -0.01332686 29.95768433 -0.01076449 32.08398438 -0.00683594 C33.09545532 -0.0108844 34.10692627 -0.01493286 35.14904785 -0.019104 C36.08341675 -0.01279968 37.01778564 -0.00649536 37.98046875 0 C39.21718323 0.00238678 39.21718323 0.00238678 40.47888184 0.00482178 C42.49023438 0.25878906 42.49023438 0.25878906 44.49023438 2.25878906 C44.74346126 8.6376948 43.2324733 15.49877525 40.49023438 21.25878906 C37.88072202 22.56354524 35.96322153 22.37180478 33.04492188 22.35644531 C31.96855469 22.35322266 30.8921875 22.35 29.78320312 22.34667969 C28.65527344 22.33830078 27.52734375 22.32992187 26.36523438 22.32128906 C24.66173828 22.31452148 24.66173828 22.31452148 22.92382812 22.30761719 C20.11257799 22.29580521 17.30143207 22.27933413 14.49023438 22.25878906 C14.42545898 23.12515991 14.42545898 23.12515991 14.359375 24.0090332 C13.75454619 31.03323198 12.47349726 37.80971139 10.99023438 44.69628906 C10.76464844 45.77072266 10.5390625 46.84515625 10.30664062 47.95214844 C8.64431947 55.79653379 8.64431947 55.79653379 7.49023438 59.25878906 C8.34572876 59.25093384 8.34572876 59.25093384 9.21850586 59.24291992 C11.78823761 59.22220685 14.35795184 59.20914716 16.92773438 59.19628906 C17.82556641 59.18791016 18.72339844 59.17953125 19.6484375 59.17089844 C20.50244141 59.16767578 21.35644531 59.16445312 22.23632812 59.16113281 C23.0270874 59.155896 23.81784668 59.15065918 24.63256836 59.14526367 C26.49023438 59.25878906 26.49023438 59.25878906 27.49023438 60.25878906 C28.06653233 66.74214101 27.2915002 75.65418767 23.20898438 80.9074707 C21.0076158 82.6382342 19.8159099 82.60762817 17.04101562 82.55175781 C16.19345703 82.54208984 15.34589844 82.53242188 14.47265625 82.52246094 C13.59158203 82.49732422 12.71050781 82.4721875 11.80273438 82.44628906 C10.91005859 82.43275391 10.01738281 82.41921875 9.09765625 82.40527344 C6.89457271 82.36992985 4.69270855 82.32059399 2.49023438 82.25878906 C2.39000977 82.80067871 2.28978516 83.34256836 2.18652344 83.90087891 C0.35709387 93.75117485 -1.51285193 103.59174565 -3.63476562 113.38378906 C-3.79299805 114.13450684 -3.95123047 114.88522461 -4.11425781 115.65869141 C-4.86293033 119.04655225 -5.56161949 121.33656986 -7.50976562 124.25878906 C-9.83227539 124.61523438 -9.83227539 124.61523438 -12.70117188 124.58691406 C-13.72791016 124.58175781 -14.75464844 124.57660156 -15.8125 124.57128906 C-16.88822266 124.55066406 -17.96394531 124.53003906 -19.07226562 124.50878906 C-20.69165039 124.50105469 -20.69165039 124.50105469 -22.34375 124.49316406 C-30.35596602 124.41258867 -30.35596602 124.41258867 -31.50976562 123.25878906 C-30.94496004 115.51522267 -29.36861415 107.98206565 -27.82226562 100.38378906 C-27.55117897 99.03955263 -27.28010167 97.69531432 -27.0090332 96.35107422 C-25.11925135 87.02853905 -23.08343224 77.74252739 -20.97851562 68.46630859 C-19.3119267 61.05149126 -17.74987459 53.62026236 -16.23632812 46.17285156 C-16.03757584 45.19512787 -15.83882355 44.21740417 -15.63404846 43.21005249 C-14.63925702 38.30746879 -13.65075028 33.40368639 -12.66870117 28.49853516 C-6.9388986 0.01339163 -6.9388986 0.01339163 0 0 Z M-3.50976562 3.25878906 C-4.77005168 7.03964722 -5.84705627 10.4187328 -6.66381836 14.25537109 C-6.97128242 15.68743141 -6.97128242 15.68743141 -7.28495789 17.14842224 C-7.50223038 18.17742142 -7.71950287 19.20642059 -7.94335938 20.26660156 C-8.1773494 21.36122208 -8.41133942 22.45584259 -8.65242004 23.58363342 C-9.42085883 27.18295155 -10.18426152 30.78331525 -10.94726562 34.38378906 C-11.47863606 36.88163543 -12.01021411 39.37943765 -12.54199219 41.87719727 C-13.36519015 45.74576443 -14.18795129 49.61442187 -15.00857544 53.48353577 C-16.64773192 61.21154296 -18.29635553 68.93745697 -19.95497131 76.66131592 C-20.98213354 81.44711128 -22.0050713 86.23380337 -23.02713013 91.02069092 C-23.51416654 93.2979366 -24.00282528 95.57483593 -24.49313354 97.85137939 C-25.17533623 101.0213391 -25.85114219 104.19259819 -26.52539062 107.36425781 C-26.82918388 108.76515404 -26.82918388 108.76515404 -27.13911438 110.1943512 C-27.32104843 111.05632614 -27.50298248 111.91830109 -27.69042969 112.80639648 C-27.84964905 113.55016037 -28.00886841 114.29392426 -28.1729126 115.06022644 C-28.63597214 117.71180704 -28.63597214 117.71180704 -28.50976562 122.25878906 C-22.23976563 122.25878906 -15.96976562 122.25878906 -9.50976562 122.25878906 C-6.92071004 114.49162229 -5.00989586 107.04273757 -3.32226562 99.07128906 C-3.04962891 97.82669922 -2.77699219 96.58210938 -2.49609375 95.29980469 C-2.23892578 94.09646484 -1.98175781 92.893125 -1.71679688 91.65332031 C-1.48452393 90.56897705 -1.25225098 89.48463379 -1.01293945 88.36743164 C-0.34998234 84.79648726 -0.34998234 84.79648726 -0.50976562 79.25878906 C6.75023437 79.25878906 14.01023437 79.25878906 21.49023438 79.25878906 C21.98523438 77.38191406 22.48023438 75.50503906 22.99023438 73.57128906 C23.26867187 72.51554687 23.54710937 71.45980469 23.83398438 70.37207031 C24.66211602 66.97365688 24.66211602 66.97365688 24.49023438 62.25878906 C17.89023437 62.25878906 11.29023438 62.25878906 4.49023438 62.25878906 C5.30626732 58.13243381 6.12353341 54.00636043 6.94384766 49.88085938 C7.22190008 48.48060929 7.49925869 47.08022123 7.77587891 45.6796875 C10.37762515 32.51128233 10.37762515 32.51128233 11.68554688 27.60253906 C12.68521297 24.02178891 12.68521297 24.02178891 12.49023438 19.25878906 C21.07023437 19.25878906 29.65023437 19.25878906 38.49023438 19.25878906 C41.70949888 9.35511159 41.70949888 9.35511159 41.49023438 3.25878906 C26.64023437 3.25878906 11.79023438 3.25878906 -3.50976562 3.25878906 Z " fill="#0B0614" transform="translate(301.509765625,196.7412109375)"/>
<path d="M0 0 C6.81761894 -0.0252689 13.63522589 -0.04283244 20.45288086 -0.05493164 C22.77417451 -0.05997333 25.09546497 -0.06680651 27.41674805 -0.07543945 C30.74528795 -0.08751225 34.07378602 -0.09322979 37.40234375 -0.09765625 C38.44712387 -0.10281754 39.49190399 -0.10797882 40.56834412 -0.11329651 C41.52926468 -0.11337204 42.49018524 -0.11344757 43.48022461 -0.11352539 C44.75596596 -0.11685631 44.75596596 -0.11685631 46.05747986 -0.12025452 C48 0 48 0 49 1 C49.32041542 6.98108777 49.54824261 14.58850908 45.80078125 19.60546875 C43.2955533 21.54552597 41.59892881 21.34284014 38.45703125 21.29296875 C36.84731445 21.2784668 36.84731445 21.2784668 35.20507812 21.26367188 C34.08552734 21.23853516 32.96597656 21.21339844 31.8125 21.1875 C30.68134766 21.17396484 29.55019531 21.16042969 28.38476562 21.14648438 C25.58936683 21.11109958 22.79492108 21.06172948 20 21 C19.89816406 22.18464844 19.79632813 23.36929688 19.69140625 24.58984375 C18.94091488 31.34426604 17.39902811 37.93306275 15.9375 44.5625 C15.652578 45.87035198 15.36806969 47.17829415 15.08398438 48.48632812 C14.39337262 51.6584601 13.69861189 54.8296221 13 58 C14.27617187 57.97679687 15.55234375 57.95359375 16.8671875 57.9296875 C18.5364525 57.91093171 20.2057238 57.89273131 21.875 57.875 C22.71675781 57.85824219 23.55851562 57.84148437 24.42578125 57.82421875 C25.23144531 57.81777344 26.03710938 57.81132812 26.8671875 57.8046875 C27.61081543 57.79421387 28.35444336 57.78374023 29.12060547 57.77294922 C31 58 31 58 33 60 C32.64021659 66.59602919 31.7948864 76.2051136 27 81 C24.93701172 81.22705078 24.93701172 81.22705078 22.4296875 81.1953125 C21.53378906 81.18886719 20.63789063 81.18242187 19.71484375 81.17578125 C18.30912109 81.15064453 18.30912109 81.15064453 16.875 81.125 C15.45767578 81.11146484 15.45767578 81.11146484 14.01171875 81.09765625 C11.67422708 81.07404522 9.33723877 81.04111516 7 81 C6.95681641 81.59208252 6.91363281 82.18416504 6.86914062 82.79418945 C6.305763 89.42744417 5.06134557 95.72352936 3.5 102.1875 C3.0493939 104.07618329 2.60141444 105.96549546 2.15625 107.85546875 C1.94742188 108.73895996 1.73859375 109.62245117 1.5234375 110.53271484 C1.06486496 112.69425125 0.76160305 114.7935926 0.53125 116.98828125 C-0.05146331 120.29175159 -0.38123168 121.04398868 -3 123 C-5.34423828 123.35644531 -5.34423828 123.35644531 -8.0703125 123.328125 C-9.04871094 123.32296875 -10.02710938 123.3178125 -11.03515625 123.3125 C-12.05480469 123.291875 -13.07445312 123.27125 -14.125 123.25 C-15.15238281 123.24484375 -16.17976562 123.2396875 -17.23828125 123.234375 C-24.84602387 123.15397613 -24.84602387 123.15397613 -26 122 C-26.08932337 112.52279082 -23.69547228 103.25906194 -21.59240723 94.08581543 C-20.55940442 89.5768316 -19.55341079 85.06182854 -18.546875 80.546875 C-18.33697937 79.60732971 -18.12708374 78.66778442 -17.91082764 77.69976807 C-15.1574403 65.30755364 -12.6702001 52.86012069 -10.18359375 40.41210938 C-8.37317964 31.39424539 -6.45787443 22.40877481 -4.359375 13.453125 C-4.15411194 12.56510193 -3.94884888 11.67707886 -3.73736572 10.762146 C-3.54011902 9.93474915 -3.34287231 9.10735229 -3.13964844 8.25488281 C-2.96769958 7.5281134 -2.79575073 6.80134399 -2.61859131 6.05255127 C-1.96450586 3.88222669 -1.06855511 1.99505284 0 0 Z M1 3 C-2.84929579 20.80740406 -2.84929579 20.80740406 -6.6875 38.6171875 C-8.38669893 46.5142014 -10.08792928 54.41075442 -11.796875 62.30566406 C-13.15816824 68.59457911 -14.51493666 74.88445236 -15.86680317 81.17540073 C-16.59823814 84.57835512 -17.33185239 87.98080704 -18.07064819 91.38217163 C-18.90149874 95.20776834 -19.72260159 99.03542206 -20.54296875 102.86328125 C-20.79244263 104.00487701 -21.0419165 105.14647278 -21.2989502 106.32266235 C-21.63666443 107.90958389 -21.63666443 107.90958389 -21.98120117 109.52856445 C-22.17896652 110.44507278 -22.37673187 111.36158112 -22.58049011 112.30586243 C-23.15385806 115.53365907 -23.15385806 115.53365907 -23 121 C-16.73 121 -10.46 121 -4 121 C-1.41968232 111.82553713 0.79347227 102.64093219 2.75 93.3125 C2.97260498 92.26126953 3.19520996 91.21003906 3.42456055 90.12695312 C3.62992432 89.13244141 3.83528809 88.13792969 4.046875 87.11328125 C4.32289551 85.77970581 4.32289551 85.77970581 4.60449219 84.41918945 C5.10756381 81.75061913 5.10756381 81.75061913 5 78 C11.93 78 18.86 78 26 78 C27.25615229 74.85961928 28.32009829 72.15071874 29.125 68.9375 C29.29257813 68.28652344 29.46015625 67.63554687 29.6328125 66.96484375 C30.1224657 64.67782143 30.1224657 64.67782143 30 61 C23.07 61 16.14 61 9 61 C9.556875 58.875625 10.11375 56.75125 10.6875 54.5625 C12.62477521 46.96749123 14.21471892 39.31021938 15.75 31.625 C15.97260498 30.51326416 16.19520996 29.40152832 16.42456055 28.25610352 C17.54802755 23.16543971 17.54802755 23.16543971 18 18 C26.25 18 34.5 18 43 18 C45.75579124 13.09574976 45.75579124 13.09574976 46 3 C31.15 3 16.3 3 1 3 Z " fill="#18161A" transform="translate(201,160)"/>
<path d="M0 0 C0.67546875 0.56589844 1.3509375 1.13179687 2.046875 1.71484375 C14.0969104 11.83378374 24.6930534 23.34541081 34 36 C34.63929443 36.85609863 34.63929443 36.85609863 35.29150391 37.72949219 C44.02344824 49.44476824 51.79602486 61.75030435 58 75 C53.59003861 73.53001287 52.65149444 70.0418052 50.625 66.125 C42.40864204 50.83442701 32.52335618 36.95679467 21 24 C20.37738281 23.2678125 19.75476563 22.535625 19.11328125 21.78125 C11.23941455 12.53083318 2.49457882 4.54874217 -7 -3 C-8.11375 -3.94939453 -8.11375 -3.94939453 -9.25 -4.91796875 C-17.523517 -11.88438498 -26.76339426 -17.42092848 -36 -23 C-36.74314453 -23.45197754 -37.48628906 -23.90395508 -38.25195312 -24.36962891 C-50.58404584 -31.79274952 -63.45850932 -37.17333005 -77 -42 C-77.82113281 -42.29390625 -78.64226562 -42.5878125 -79.48828125 -42.890625 C-137.28215608 -63.2095329 -201.96204402 -58.27243313 -257 -32.125 C-286.5351597 -17.66655696 -314.65041149 2.56833208 -334.9921875 28.65234375 C-336.85313576 30.82827742 -338.64136891 32.39761162 -341 34 C-339.64891034 31.03674056 -338.11293352 28.79214835 -335.9375 26.375 C-335.31488281 25.68019531 -334.69226563 24.98539062 -334.05078125 24.26953125 C-333.03564453 23.14611328 -333.03564453 23.14611328 -332 22 C-331.29230469 21.19949219 -330.58460938 20.39898437 -329.85546875 19.57421875 C-321.5181027 10.1855561 -312.85769946 1.78586704 -303 -6 C-302.04738281 -6.78117187 -301.09476563 -7.56234375 -300.11328125 -8.3671875 C-290.68267312 -15.92616405 -280.47507901 -22.00255443 -270 -28 C-269.32678711 -28.38961914 -268.65357422 -28.77923828 -267.95996094 -29.18066406 C-188.48860902 -74.85909093 -85.79073609 -64.31882544 0 0 Z " fill="#6A27FF" transform="translate(412,62)"/>
<path d="M0 0 C0.79719955 0.00222061 1.59439911 0.00444122 2.41575623 0.00672913 C3.31661453 0.00680466 4.21747284 0.00688019 5.14562988 0.00695801 C6.12478867 0.01211929 7.10394745 0.01728058 8.11277771 0.02259827 C9.11018478 0.02401321 10.10759186 0.02542816 11.13522339 0.02688599 C14.3348027 0.03250337 17.53431315 0.04505881 20.73387146 0.05775452 C22.89728191 0.06276728 25.06069345 0.06733057 27.22410583 0.07142639 C32.53988471 0.08247845 37.85562317 0.09923348 43.17137146 0.12025452 C43.17137146 1.77025452 43.17137146 3.42025452 43.17137146 5.12025452 C29.64137146 5.12025452 16.11137146 5.12025452 2.17137146 5.12025452 C0.45500508 9.41117048 -0.61555358 13.38364834 -1.49269104 17.87416077 C-1.64560104 18.63452637 -1.79851105 19.39489197 -1.95605469 20.17829895 C-2.28613845 21.82008672 -2.61429381 23.46226314 -2.9407196 25.1047821 C-3.81991879 29.5237951 -4.71581007 33.93939861 -5.61378479 38.35462952 C-5.79745102 39.25792496 -5.98111725 40.1612204 -6.17034912 41.09188843 C-7.97029593 49.89653007 -9.9146707 58.66633289 -11.89112854 67.43275452 C-15.7609194 84.61690594 -19.33734257 101.85558089 -22.82862854 119.12025452 C-24.14862854 119.12025452 -25.46862854 119.12025452 -26.82862854 119.12025452 C-26.12539375 110.95432574 -24.44870446 103.04521212 -22.73097229 95.04603577 C-22.41716178 93.56888974 -22.10375002 92.09165896 -21.79071045 90.61434937 C-20.95862819 86.69262394 -20.12136749 82.77202195 -19.28295135 78.85164642 C-18.42082451 74.81662401 -17.56306499 70.78067386 -16.70509338 66.74476624 C-15.68647838 61.95408829 -14.66757452 57.16347362 -13.64656067 52.37330627 C-11.77513384 43.59111216 -9.91838185 34.80613857 -8.09034729 26.01478577 C-7.80365425 24.63855797 -7.80365425 24.63855797 -7.51116943 23.23452759 C-6.82739217 19.95112759 -6.14364124 16.66774263 -5.46702576 13.38285828 C-5.03084426 11.26600205 -4.59038761 9.15008029 -4.14894104 7.03431702 C-3.79726868 5.33202942 -3.79726868 5.33202942 -3.43849182 3.59535217 C-2.59464115 0.17062914 -2.59464115 0.17062914 0 0 Z " fill="#8D56F9" transform="translate(299.82862854003906,199.87974548339844)"/>
<path d="M0 0 C0.82527191 0.00586624 1.65054382 0.01173248 2.50082397 0.01777649 C3.43834503 0.01485092 4.37586609 0.01192535 5.34179688 0.00891113 C6.85596695 0.03517326 6.85596695 0.03517326 8.40072632 0.06196594 C9.43732391 0.06525406 10.47392151 0.06854218 11.54193115 0.07192993 C13.73255694 0.082355 15.92315496 0.10231194 18.11361694 0.13105774 C21.48030628 0.1751639 24.84628377 0.19249468 28.21322632 0.20454407 C30.33823669 0.21796613 32.46323822 0.23288855 34.58822632 0.24946594 C35.6017215 0.25685287 36.61521667 0.26423981 37.65942383 0.27185059 C38.59064056 0.28468582 39.5218573 0.29752106 40.48129272 0.31074524 C41.71681381 0.32551155 41.71681381 0.32551155 42.97729492 0.34057617 C44.86166382 0.48774719 44.86166382 0.48774719 45.86166382 1.48774719 C45.81013835 7.97995568 44.66567215 14.59798808 41.86166382 20.48774719 C39.25215146 21.79250337 37.33465097 21.60076291 34.41635132 21.58540344 C33.33998413 21.58218079 32.26361694 21.57895813 31.15463257 21.57563782 C30.02670288 21.56725891 28.89877319 21.55888 27.73666382 21.55024719 C26.60099976 21.54573547 25.46533569 21.54122375 24.29525757 21.53657532 C21.48400744 21.52476334 18.67286152 21.50829226 15.86166382 21.48774719 C15.81848022 22.06532776 15.77529663 22.64290833 15.73080444 23.23799133 C15.12597564 30.26219011 13.8449267 37.03866952 12.36166382 43.92524719 C12.13607788 44.99968079 11.91049194 46.07411438 11.67807007 47.18110657 C10.01574891 55.02549192 10.01574891 55.02549192 8.86166382 58.48774719 C9.7171582 58.47989197 9.7171582 58.47989197 10.5899353 58.47187805 C13.15966705 58.45116498 15.72938128 58.43810529 18.29916382 58.42524719 C19.19699585 58.41686829 20.09482788 58.40848938 21.01986694 58.39985657 C21.87387085 58.39663391 22.72787476 58.39341125 23.60775757 58.39009094 C24.39851685 58.38485413 25.18927612 58.37961731 26.0039978 58.3742218 C27.86166382 58.48774719 27.86166382 58.48774719 28.86166382 59.48774719 C29.48046925 66.44930826 27.99180538 74.22746406 24.86166382 80.48774719 C17.27166382 80.48774719 9.68166382 80.48774719 1.86166382 80.48774719 C1.86166382 79.82774719 1.86166382 79.16774719 1.86166382 78.48774719 C8.79166382 78.48774719 15.72166382 78.48774719 22.86166382 78.48774719 C23.17103882 76.61087219 23.48041382 74.73399719 23.79916382 72.80024719 C24.42398414 69.00967055 25.10788069 65.25666284 25.86166382 61.48774719 C19.26166382 61.48774719 12.66166382 61.48774719 5.86166382 61.48774719 C6.45079269 52.02019726 8.33085364 43.01884337 10.42416382 33.80024719 C10.75747734 32.30885167 11.09016409 30.81731592 11.42221069 29.32563782 C12.22701571 25.71103973 13.04455426 22.09967011 13.86166382 18.48774719 C22.44166382 18.48774719 31.02166382 18.48774719 39.86166382 18.48774719 C41.34666382 10.56774719 41.34666382 10.56774719 42.86166382 2.48774719 C28.01166382 2.81774719 13.16166382 3.14774719 -2.13833618 3.48774719 C-2.46833618 4.14774719 -2.79833618 4.80774719 -3.13833618 5.48774719 C-3.79833618 5.15774719 -4.45833618 4.82774719 -5.13833618 4.48774719 C-2.77073271 0.63199468 -2.77073271 0.63199468 0 0 Z " fill="#110F13" transform="translate(300.1383361816406,197.5122528076172)"/>
<path d="M0 0 C14.85 0 29.7 0 45 0 C45 0.66 45 1.32 45 2 C43.19813232 2.029729 43.19813232 2.029729 41.35986328 2.06005859 C36.91303146 2.1359962 32.46653195 2.22473132 28.02001953 2.31738281 C26.09365386 2.35572168 24.1672154 2.39056582 22.24072266 2.421875 C19.47532082 2.46741945 16.71042231 2.52543037 13.9453125 2.5859375 C13.0806839 2.59748871 12.2160553 2.60903992 11.32522583 2.62094116 C6.68217152 2.52662158 6.68217152 2.52662158 3 5 C2.25634012 7.65326516 2.25634012 7.65326516 1.703125 10.80859375 C1.46996582 12.01572021 1.23680664 13.22284668 0.99658203 14.46655273 C0.87526917 15.11228241 0.7539563 15.75801208 0.62896729 16.42330933 C-0.01930881 19.86886181 -0.69398923 23.30924487 -1.3671875 26.75 C-1.50395905 27.4516478 -1.64073059 28.15329559 -1.78164673 28.87620544 C-3.03286899 35.2560696 -4.43309155 41.59810874 -5.875 47.9375 C-8.8166294 60.92263635 -11.48185864 73.95957233 -14.10888672 87.01147461 C-16.20702912 97.39197086 -18.51087079 107.70622505 -21 118 C-21.99 118 -22.98 118 -24 118 C-23.4861907 108.67677717 -21.62838687 99.73723525 -19.6484375 90.64453125 C-19.30736462 89.05551192 -18.96685187 87.46637228 -18.62686157 85.87712097 C-17.73112602 81.697748 -16.82756542 77.52010475 -15.92236328 73.34277344 C-15.02792575 69.20809434 -14.14134622 65.07173236 -13.25390625 60.93554688 C-8.88899808 40.61208903 -4.45237318 20.30445774 0 0 Z " fill="#8B53F9" transform="translate(202,163)"/>
<path d="M0 0 C0.99 0.33 1.98 0.66 3 1 C1.89320388 17.10679612 1.89320388 17.10679612 -1 20 C-2.56172745 20.08685603 -4.12729344 20.10702219 -5.69140625 20.09765625 C-6.63564453 20.09443359 -7.57988281 20.09121094 -8.55273438 20.08789062 C-9.54595703 20.07951172 -10.53917969 20.07113281 -11.5625 20.0625 C-12.55958984 20.05798828 -13.55667969 20.05347656 -14.58398438 20.04882812 C-17.05604849 20.03700007 -19.52799518 20.02051849 -22 20 C-22.14115234 21.71896484 -22.14115234 21.71896484 -22.28515625 23.47265625 C-23.02953484 30.15113202 -24.51477031 36.68595286 -25.95629883 43.2409668 C-26.44134356 45.45504467 -26.91333627 47.67165998 -27.38476562 49.88867188 C-27.69192512 51.29964989 -27.99984016 52.7104637 -28.30859375 54.12109375 C-28.58501709 55.3939624 -28.86144043 56.66683105 -29.14624023 57.97827148 C-30 61 -30 61 -32 63 C-34.06298828 63.22705078 -34.06298828 63.22705078 -36.5703125 63.1953125 C-37.46621094 63.18886719 -38.36210937 63.18242187 -39.28515625 63.17578125 C-40.22230469 63.15902344 -41.15945313 63.14226562 -42.125 63.125 C-43.06988281 63.11597656 -44.01476562 63.10695313 -44.98828125 63.09765625 C-47.32577292 63.07404522 -49.66276123 63.04111516 -52 63 C-52.33 61.68 -52.66 60.36 -53 59 C-47.06 58.67 -41.12 58.34 -35 58 C-32.59548536 49.54100388 -30.6640998 41.04585707 -28.875 32.4375 C-28.35405185 29.93567827 -27.83074026 27.43434712 -27.3046875 24.93359375 C-27.07765137 23.84103271 -26.85061523 22.74847168 -26.61669922 21.62280273 C-26 19 -26 19 -25 17 C-14.605 16.505 -14.605 16.505 -4 16 C-3.525625 13.73125 -3.05125 11.4625 -2.5625 9.125 C-1.125 2.25 -1.125 2.25 0 0 Z " fill="#EBE1E2" transform="translate(329,262)"/>
<path d="M0 0 C6.81761894 -0.0252689 13.63522589 -0.04283244 20.45288086 -0.05493164 C22.77417451 -0.05997333 25.09546497 -0.06680651 27.41674805 -0.07543945 C30.74528795 -0.08751225 34.07378602 -0.09322979 37.40234375 -0.09765625 C38.44712387 -0.10281754 39.49190399 -0.10797882 40.56834412 -0.11329651 C41.52926468 -0.11337204 42.49018524 -0.11344757 43.48022461 -0.11352539 C44.33071884 -0.115746 45.18121307 -0.11796661 46.05747986 -0.12025452 C48 0 48 0 49 1 C49.3243803 7.05509889 49.59475772 14.84572578 45.55078125 19.76171875 C44 21 44 21 42 21 C42 20.34 42 19.68 42 19 C34.08 19 26.16 19 18 19 C18 18.67 18 18.34 18 18 C30.375 17.505 30.375 17.505 43 17 C43.99 12.38 44.98 7.76 46 3 C31.15 3 16.3 3 1 3 C0.67 5.64 0.34 8.28 0 11 C-0.2889634 12.62299822 -0.59887503 14.24256352 -0.93969727 15.85546875 C-1.1198085 16.71575684 -1.29991974 17.57604492 -1.48548889 18.46240234 C-1.77304298 19.81132568 -1.77304298 19.81132568 -2.06640625 21.1875 C-2.26475571 22.13061035 -2.46310516 23.0737207 -2.66746521 24.04541016 C-3.29608884 27.03092737 -3.92922023 30.01546735 -4.5625 33 C-4.99183566 35.03509315 -5.42087513 37.07024881 -5.84960938 39.10546875 C-6.89631534 44.07104203 -7.94706263 49.0357445 -9 54 C-9.99 53.34 -10.98 52.68 -12 52 C-10.19327001 41.79356043 -8.13490745 31.64246074 -6 21.5 C-5.7510498 20.29569336 -5.50209961 19.09138672 -5.24560547 17.85058594 C-4.99955566 16.69333008 -4.75350586 15.53607422 -4.5 14.34375 C-4.2834375 13.31443359 -4.066875 12.28511719 -3.84375 11.22460938 C-2.82944392 7.34817574 -1.45650404 3.73229161 0 0 Z " fill="#140C26" transform="translate(201,160)"/>
<path d="M0 0 C1.32 0 2.64 0 4 0 C2.28571429 15.71428571 2.28571429 15.71428571 -1 19 C-3.06298828 19.31884766 -3.06298828 19.31884766 -5.5703125 19.4140625 C-6.46621094 19.45273438 -7.36210937 19.49140625 -8.28515625 19.53125 C-9.22230469 19.5621875 -10.15945312 19.593125 -11.125 19.625 C-12.54232422 19.68300781 -12.54232422 19.68300781 -13.98828125 19.7421875 C-16.32532375 19.83661346 -18.66235501 19.92218394 -21 20 C-21.23187012 21.16571533 -21.46374023 22.33143066 -21.70263672 23.5324707 C-22.56438095 27.85561733 -23.4349083 32.17695612 -24.30810547 36.49780273 C-24.68485628 38.36841434 -25.05922094 40.23950818 -25.43115234 42.11108398 C-25.96606405 44.80062006 -26.50952311 47.48830715 -27.0546875 50.17578125 C-27.21935516 51.01337479 -27.38402283 51.85096832 -27.55368042 52.71394348 C-27.71369537 53.49452621 -27.87371033 54.27510895 -28.03857422 55.0793457 C-28.17625214 55.76551468 -28.31393005 56.45168365 -28.45578003 57.15864563 C-29 59 -29 59 -31 62 C-33.15478516 62.34057617 -33.15478516 62.34057617 -35.7890625 62.29296875 C-36.73007813 62.28330078 -37.67109375 62.27363281 -38.640625 62.26367188 C-39.62546875 62.23853516 -40.6103125 62.21339844 -41.625 62.1875 C-43.11386719 62.16719727 -43.11386719 62.16719727 -44.6328125 62.14648438 C-47.08908072 62.11105743 -49.54427285 62.06166196 -52 62 C-52.495 60.515 -52.495 60.515 -53 59 C-51.72382813 58.95101562 -50.44765625 58.90203125 -49.1328125 58.8515625 C-47.46351928 58.77653809 -45.79424954 58.70099012 -44.125 58.625 C-43.28324219 58.5940625 -42.44148437 58.563125 -41.57421875 58.53125 C-40.36572266 58.47324219 -40.36572266 58.47324219 -39.1328125 58.4140625 C-38.38918457 58.3826416 -37.64555664 58.3512207 -36.87939453 58.31884766 C-34.75989026 58.14580449 -34.75989026 58.14580449 -33 56 C-32.48088306 53.97754441 -32.06202653 51.92915163 -31.6875 49.875 C-31.43632389 48.53749145 -31.18360194 47.20027266 -30.9296875 45.86328125 C-30.78756836 45.10869629 -30.64544922 44.35411133 -30.49902344 43.57666016 C-29.49518663 38.39344407 -28.39593766 33.22954672 -27.3125 28.0625 C-26.87104511 25.94922891 -26.42963511 23.83594844 -25.98828125 21.72265625 C-25.66214844 20.16417969 -25.33601563 18.60570312 -25 17 C-15.1 16.505 -15.1 16.505 -5 16 C-2.4072847 10.05475608 -2.4072847 10.05475608 -0.8125 4.0625 C-0.65394531 3.29035156 -0.49539062 2.51820313 -0.33203125 1.72265625 C-0.22246094 1.15417969 -0.11289063 0.58570313 0 0 Z " fill="#E7DDE0" transform="translate(233,224)"/>
<path d="M0 0 C1.32 0 2.64 0 4 0 C2.84095861 15.15904139 2.84095861 15.15904139 0 18 C-1.85369611 18.08737645 -3.71067541 18.10698153 -5.56640625 18.09765625 C-6.69111328 18.09443359 -7.81582031 18.09121094 -8.97460938 18.08789062 C-10.15861328 18.07951172 -11.34261719 18.07113281 -12.5625 18.0625 C-13.75037109 18.05798828 -14.93824219 18.05347656 -16.16210938 18.04882812 C-19.10812226 18.03699675 -22.05403681 18.02051287 -25 18 C-25.1134375 19.23878906 -25.226875 20.47757813 -25.34375 21.75390625 C-25.99113249 27.57237037 -27.22807612 33.22837879 -28.5 38.9375 C-28.72558594 39.97712891 -28.95117188 41.01675781 -29.18359375 42.08789062 C-30.86350356 49.72700711 -30.86350356 49.72700711 -32 52 C-33.32 52 -34.64 52 -36 52 C-34.36785819 39.52751334 -31.61073155 27.29791967 -29 15 C-20.42 14.67 -11.84 14.34 -3 14 C-2.01 9.38 -1.02 4.76 0 0 Z " fill="#ECE2E4" transform="translate(345,204)"/>
<path d="M0 0 C0.99 0 1.98 0 3 0 C3.41953291 6.29299361 2.22777513 12.09333017 0 18 C-2.60951236 19.30475618 -4.52701285 19.11301572 -7.4453125 19.09765625 C-9.05986328 19.09282227 -9.05986328 19.09282227 -10.70703125 19.08789062 C-11.83496094 19.07951172 -12.96289062 19.07113281 -14.125 19.0625 C-15.26066406 19.05798828 -16.39632812 19.05347656 -17.56640625 19.04882812 C-20.37765638 19.03701615 -23.1888023 19.02054507 -26 19 C-26.11214844 20.22589844 -26.22429687 21.45179688 -26.33984375 22.71484375 C-27.01023569 28.74837124 -28.28647576 34.63274029 -29.5625 40.5625 C-29.79646484 41.66658203 -30.03042969 42.77066406 -30.27148438 43.90820312 C-30.84381062 46.60631255 -31.42006002 49.30351875 -32 52 C-33.98 52.495 -33.98 52.495 -36 53 C-35.51118858 44.52905916 -33.93037872 36.54757423 -31.9375 28.3125 C-31.65583984 27.12205078 -31.37417969 25.93160156 -31.08398438 24.70507812 C-30.39603847 21.8017132 -29.70127676 18.9001683 -29 16 C-28.28344238 15.98018066 -27.56688477 15.96036133 -26.82861328 15.93994141 C-23.5936937 15.84490481 -20.35943906 15.73513981 -17.125 15.625 C-15.99707031 15.5940625 -14.86914062 15.563125 -13.70703125 15.53125 C-12.63066406 15.49257812 -11.55429688 15.45390625 -10.4453125 15.4140625 C-8.95281982 15.36693115 -8.95281982 15.36693115 -7.43017578 15.31884766 C-4.82145483 15.22752917 -4.82145483 15.22752917 -3 13 C-2.38649958 10.8105352 -1.85440188 8.59768143 -1.375 6.375 C-1.11460937 5.18648437 -0.85421875 3.99796875 -0.5859375 2.7734375 C-0.29589844 1.40058594 -0.29589844 1.40058594 0 0 Z " fill="#EADEE5" transform="translate(250,165)"/>
<path d="M0 0 C0.33 0 0.66 0 1 0 C1.3664256 7.24118877 -0.02020749 13.77055659 -1.58984375 20.8203125 C-1.98581505 22.64645584 -1.98581505 22.64645584 -2.38978577 24.50949097 C-3.08882698 27.7273325 -3.79478355 30.94354722 -4.50445557 34.15905762 C-5.50283538 38.69151905 -6.48760697 43.22695937 -7.47450256 47.76193237 C-7.99957706 50.17093804 -8.52701757 52.57942954 -9.05711365 54.98733521 C-9.29728714 56.0822226 -9.53746063 57.17710999 -9.78491211 58.30517578 C-9.99587021 59.26255646 -10.20682831 60.21993713 -10.42417908 61.20632935 C-11.02533898 64.12293537 -11.51043362 67.06260172 -12 70 C-5.73 70 0.54 70 7 70 C7.66 68.68 8.32 67.36 9 66 C9.625 67.875 9.625 67.875 10 70 C8 72 8 72 5.76928711 72.24291992 C4.41202515 72.23675659 4.41202515 72.23675659 3.02734375 72.23046875 C2.04572266 72.22853516 1.06410156 72.22660156 0.05273438 72.22460938 C-0.97529297 72.21236328 -2.00332031 72.20011719 -3.0625 72.1875 C-4.09439453 72.18685547 -5.12628906 72.18621094 -6.18945312 72.18554688 C-13.85984003 72.14015997 -13.85984003 72.14015997 -15 71 C-15.17809415 60.0777782 -12.02971686 49.19589258 -9.625 38.625 C-9.22060749 36.82308408 -8.81695711 35.02100143 -8.4140625 33.21875 C-7.82521757 30.58517251 -7.23513214 27.95192875 -6.63946533 25.31988525 C-5.76737966 21.46337412 -4.90881296 17.60629711 -4.11230469 13.73339844 C-3.85610352 12.48848633 -3.59990234 11.24357422 -3.3359375 9.9609375 C-3.12243652 8.89407715 -2.90893555 7.8272168 -2.68896484 6.72802734 C-2.05790081 4.22926423 -1.25959076 2.23666276 0 0 Z " fill="#0E081B" transform="translate(190,211)"/>
<path d="M0 0 C1.24243217 0.01332367 1.24243217 0.01332367 2.50996399 0.0269165 C3.45071274 0.02721863 4.39146149 0.02752075 5.36071777 0.02783203 C6.37330154 0.04847717 7.38588531 0.06912231 8.42915344 0.09039307 C9.46812271 0.09605286 10.50709198 0.10171265 11.57754517 0.10754395 C14.89964151 0.1299548 18.22066373 0.18016117 21.54243469 0.23101807 C23.79307017 0.25107692 26.04372253 0.26932875 28.29438782 0.28570557 C33.81493729 0.32983487 39.33485927 0.39679386 44.85493469 0.48101807 C44.85493469 0.81101807 44.85493469 1.14101807 44.85493469 1.48101807 C44.28308441 1.48688431 43.71123413 1.49275055 43.12205505 1.49879456 C37.18486522 1.5625929 31.24822432 1.64697618 25.31147766 1.74346924 C23.09410323 1.77678023 20.87664275 1.8047927 18.65913391 1.82745361 C15.47663092 1.86088626 12.29492105 1.91319589 9.11274719 1.96929932 C8.11687592 1.97568924 7.12100464 1.98207916 6.09495544 1.98866272 C5.17415192 2.00845688 4.25334839 2.02825104 3.30464172 2.04864502 C2.49189789 2.05974808 1.67915405 2.07085114 0.84178162 2.08229065 C-1.546897 2.31823681 -1.546897 2.31823681 -3.14506531 5.48101807 C-2.99174744 6.04594971 -2.83842957 6.61088135 -2.6804657 7.19293213 C-1.87598077 10.63097715 -2.81662077 13.71447109 -3.57865906 17.09039307 C-3.73544632 17.81720276 -3.89223358 18.54401245 -4.05377197 19.29284668 C-4.55507622 21.60746811 -5.06863463 23.91917093 -5.58256531 26.23101807 C-5.92517434 27.8024558 -6.26698063 29.37406878 -6.60795593 30.94586182 C-7.44436738 34.79300734 -8.29177697 38.63758213 -9.14506531 42.48101807 C-10.13506531 41.82101807 -11.12506531 41.16101807 -12.14506531 40.48101807 C-11.31498973 35.97848689 -10.47023378 31.47898283 -9.61576843 26.98101807 C-9.29231637 25.2630984 -8.97356138 23.54428978 -8.65873718 21.82476807 C-8.1641474 19.12488975 -7.65561016 16.42791943 -7.14506531 13.73101807 C-6.9913446 12.87411377 -6.8376239 12.01720947 -6.679245 11.13433838 C-6.44576355 9.9214917 -6.44576355 9.9214917 -6.20756531 8.68414307 C-6.07479187 7.96903564 -5.94201843 7.25392822 -5.80522156 6.51715088 C-4.74275633 3.24016864 -3.51071682 0.78725725 0 0 Z " fill="#1C1034" transform="translate(299.1450653076172,196.51898193359375)"/>
<path d="M0 0 C0.33 0.66 0.66 1.32 1 2 C7.93 2 14.86 2 22 2 C22 2.33 22 2.66 22 3 C15.73 3 9.46 3 3 3 C2.75765625 4.30710937 2.5153125 5.61421875 2.265625 6.9609375 C0.07058706 18.69688233 -2.32881715 30.36330452 -5 42 C-5.99 41.67 -6.98 41.34 -8 41 C-7.32299891 35.91232226 -6.42170856 30.90335723 -5.37109375 25.87890625 C-5.21713638 25.13414536 -5.06317902 24.38938446 -4.90455627 23.62205505 C-4.41754207 21.26844936 -3.92757167 18.91547075 -3.4375 16.5625 C-3.10462128 14.95642091 -2.77193709 13.35030148 -2.43945312 11.74414062 C-1.6285498 7.82895732 -0.81499662 3.91433319 0 0 Z " fill="#212020" transform="translate(301,276)"/>
<path d="M0 0 C0.33 0.66 0.66 1.32 1 2 C1.66 2 2.32 2 3 2 C2.3841402 7.41322258 1.52805373 12.67836998 0.37109375 18 C0.21713638 18.7211499 0.06317902 19.4422998 -0.09544373 20.18530273 C-0.5812965 22.45756083 -1.07181071 24.728782 -1.5625 27 C-1.89549293 28.55331886 -2.22817801 30.10670374 -2.56054688 31.66015625 C-3.37014558 35.44087585 -4.18392242 39.22067382 -5 43 C-5.99 42.34 -6.98 41.68 -8 41 C-5.48906614 27.30214129 -2.75148159 13.6512677 0 0 Z " fill="#0F081C" transform="translate(197,171)"/>
<path d="M0 0 C0.82828812 0.00888245 1.65657623 0.01776489 2.50996399 0.0269165 C3.45071274 0.02721863 4.39146149 0.02752075 5.36071777 0.02783203 C6.37330154 0.04847717 7.38588531 0.06912231 8.42915344 0.09039307 C9.46812271 0.09605286 10.50709198 0.10171265 11.57754517 0.10754395 C14.89964151 0.1299548 18.22066373 0.18016117 21.54243469 0.23101807 C23.79307017 0.25107692 26.04372253 0.26932875 28.29438782 0.28570557 C33.81493729 0.32983487 39.33485927 0.39679386 44.85493469 0.48101807 C44.52493469 2.13101807 44.19493469 3.78101807 43.85493469 5.48101807 C43.35993469 3.99601807 43.35993469 3.99601807 42.85493469 2.48101807 C28.00493469 2.81101807 13.15493469 3.14101807 -2.14506531 3.48101807 C-2.47506531 4.14101807 -2.80506531 4.80101807 -3.14506531 5.48101807 C-3.80506531 5.15101807 -4.46506531 4.82101807 -5.14506531 4.48101807 C-2.77935938 0.62325472 -2.77935938 0.62325472 0 0 Z " fill="#000000" transform="translate(300.1450653076172,197.51898193359375)"/>
<path d="M0 0 C0.66 0 1.32 0 2 0 C5.35823278 11.40217612 8.34723325 22.77969772 10.375 34.5 C10.62588379 35.9396814 10.62588379 35.9396814 10.88183594 37.40844727 C11.63849786 41.9870655 12.20188536 46.34110718 12 51 C11.34 51 10.68 51 10 51 C9.91024902 50.36312256 9.82049805 49.72624512 9.72802734 49.07006836 C7.57672057 34.08995399 4.65516716 19.60702085 0.48730469 5.05517578 C0 3 0 3 0 0 Z " fill="#6F2CFF" transform="translate(481,168)"/>
<path d="M0 0 C0.33 0.99 0.66 1.98 1 3 C1.66 3 2.32 3 3 3 C2.744398 4.93956814 2.46995354 6.87665989 2.1875 8.8125 C2.03667969 9.89144531 1.88585937 10.97039062 1.73046875 12.08203125 C0.98249202 15.06993828 0.47178858 16.2255422 -2 18 C-2.66 18 -3.32 18 -4 18 C-4 17.34 -4 16.68 -4 16 C-11.92 16 -19.84 16 -28 16 C-28 15.67 -28 15.34 -28 15 C-15.625 14.505 -15.625 14.505 -3 14 C-2.01 9.38 -1.02 4.76 0 0 Z " fill="#2A2827" transform="translate(247,163)"/>
<path d="M0 0 C0.33 0.99 0.66 1.98 1 3 C7.6 3 14.2 3 21 3 C22.125 8.625 22.125 8.625 20 12 C19.34 11.67 18.68 11.34 18 11 C18.33 9.02 18.66 7.04 19 5 C12.07 5 5.14 5 -2 5 C-1.34 3.35 -0.68 1.7 0 0 Z " fill="#09080B" transform="translate(212,216)"/>
<path d="M0 0 C0.66 0.99 1.32 1.98 2 3 C4.02276681 3.50621513 4.02276681 3.50621513 6.3515625 3.51171875 C7.20234375 3.54716797 8.053125 3.58261719 8.9296875 3.61914062 C9.81914062 3.64169922 10.70859375 3.66425781 11.625 3.6875 C12.97078125 3.73874023 12.97078125 3.73874023 14.34375 3.79101562 C16.56237538 3.87362402 18.7805994 3.94272719 21 4 C21.66 2.68 22.32 1.36 23 0 C23.625 1.875 23.625 1.875 24 4 C22 6 22 6 19.75341797 6.22705078 C18.84221191 6.21657715 17.93100586 6.20610352 16.9921875 6.1953125 C15.51298828 6.18564453 15.51298828 6.18564453 14.00390625 6.17578125 C12.45509766 6.15064453 12.45509766 6.15064453 10.875 6.125 C9.83472656 6.11597656 8.79445312 6.10695313 7.72265625 6.09765625 C5.14820908 6.07403747 2.57421788 6.04110149 0 6 C-0.38218767 4.34385343 -0.71395102 2.67542976 -1 1 C-0.67 0.67 -0.34 0.34 0 0 Z " fill="#030203" transform="translate(176,277)"/>
<path d="M0 0 C0.33 0.66 0.66 1.32 1 2 C1.66 2 2.32 2 3 2 C2.20736384 9.76783437 0.58110513 17.3629639 -1 25 C-1.99 24.34 -2.98 23.68 -4 23 C-3.29885571 17.81970092 -2.41920353 12.69648064 -1.4375 7.5625 C-1.29892578 6.83095703 -1.16035156 6.09941406 -1.01757812 5.34570312 C-0.6797819 3.56353682 -0.34009012 1.78172998 0 0 Z " fill="#161615" transform="translate(202,255)"/>
<path d="M0 0 C0.5625 1.9375 0.5625 1.9375 1 4 C0 5 0 5 -2.22485352 5.11352539 C-3.18319092 5.10828857 -4.14152832 5.10305176 -5.12890625 5.09765625 C-6.68061523 5.09282227 -6.68061523 5.09282227 -8.26367188 5.08789062 C-9.35228516 5.07951172 -10.44089844 5.07113281 -11.5625 5.0625 C-13.2012207 5.05573242 -13.2012207 5.05573242 -14.87304688 5.04882812 C-17.58208495 5.03699826 -20.29101599 5.02051543 -23 5 C-23 3.68 -23 2.36 -23 1 C-22.34 1.33 -21.68 1.66 -21 2 C-17.83880202 2.2367715 -14.66910262 2.18518001 -11.5 2.1875 C-10.61957031 2.19974609 -9.73914063 2.21199219 -8.83203125 2.22460938 C-7.56939453 2.22750977 -7.56939453 2.22750977 -6.28125 2.23046875 C-5.50845703 2.23457764 -4.73566406 2.23868652 -3.93945312 2.24291992 C-1.76260287 2.17176616 -1.76260287 2.17176616 0 0 Z " fill="#040305" transform="translate(294,316)"/>
<path d="M0 0 C0.33 0 0.66 0 1 0 C0.67 2.31 0.34 4.62 0 7 C-7.59 7 -15.18 7 -23 7 C-23 6.34 -23 5.68 -23 5 C-16.07 5 -9.14 5 -2 5 C-1.67 3.68 -1.34 2.36 -1 1 C-0.67 0.67 -0.34 0.34 0 0 Z " fill="#060606" transform="translate(325,271)"/>
<path d="M0 0 C4.42269064 3.61035971 8.20365593 7.28624804 11.890625 11.6328125 C16.35631625 16.64431046 21.21997782 21.29061855 26 26 C23 26 23 26 20.97875977 24.33520508 C20.22393311 23.57103271 19.46910645 22.80686035 18.69140625 22.01953125 C17.86189453 21.18486328 17.03238281 20.35019531 16.17773438 19.49023438 C15.31470703 18.60658203 14.45167969 17.72292969 13.5625 16.8125 C12.70333984 15.94818359 11.84417969 15.08386719 10.95898438 14.19335938 C0 3.09834416 0 3.09834416 0 0 Z " fill="#ADACF7" transform="translate(60,408)"/>
<path d="M0 0 C7.92 0 15.84 0 24 0 C24 0.66 24 1.32 24 2 C16.08 2.33 8.16 2.66 0 3 C0 2.01 0 1.02 0 0 Z " fill="#000000" transform="translate(219,179)"/>
<path d="M0 0 C4.95 0 9.9 0 15 0 C14.67 1.32 14.34 2.64 14 4 C7.07 3.505 7.07 3.505 0 3 C0 2.01 0 1.02 0 0 Z " fill="#9D6EF4" transform="translate(216,221)"/>
<path d="M0 0 C0.33 0.66 0.66 1.32 1 2 C7.93 2 14.86 2 22 2 C22 2.33 22 2.66 22 3 C15.73 3 9.46 3 3 3 C2.34 5.64 1.68 8.28 1 11 C0.34 11 -0.32 11 -1 11 C-0.67 7.37 -0.34 3.74 0 0 Z " fill="#454241" transform="translate(301,276)"/>
<path d="M0 0 C4.62 0 9.24 0 14 0 C14 0.99 14 1.98 14 3 C9.38 3 4.76 3 0 3 C0 2.01 0 1.02 0 0 Z " fill="#8C52FE" transform="translate(312,259)"/>
<path d="M0 0 C0.33 0 0.66 0 1 0 C1.20674944 5.78898419 0.59162079 10.42932723 -1 16 C-1.99 16 -2.98 16 -4 16 C-3.39891424 10.34979382 -1.92471317 5.33835539 0 0 Z " fill="#0D0718" transform="translate(274,302)"/>
<path d="M0 0 C0.33 0.66 0.66 1.32 1 2 C1.66 2 2.32 2 3 2 C2.48041715 6.37934119 1.94324258 10.68803391 1 15 C0.01 14.34 -0.98 13.68 -2 13 C-1.34 8.71 -0.68 4.42 0 0 Z " fill="#2B2928" transform="translate(299,285)"/>
<path d="M0 0 C0.33 0 0.66 0 1 0 C1.1799928 5.21979128 0.97094808 9.07262981 -1 14 C-1.66 14 -2.32 14 -3 14 C-2.88512252 12.41590006 -2.75765492 10.83271037 -2.625 9.25 C-2.55539062 8.36828125 -2.48578125 7.4865625 -2.4140625 6.578125 C-2.00149945 4.00933618 -1.28839043 2.24158985 0 0 Z " fill="#0A0512" transform="translate(281,269)"/>
<path d="M0 0 C0.33 0.66 0.66 1.32 1 2 C1.66 2 2.32 2 3 2 C2.34 6.29 1.68 10.58 1 15 C0.01 14.34 -0.98 13.68 -2 13 C-1.34 8.71 -0.68 4.42 0 0 Z " fill="#1C191E" transform="translate(326,259)"/>
<path d="M0 0 C0.33 0 0.66 0 1 0 C0.03644647 10.55808656 0.03644647 10.55808656 -1 15 C-1.99 14.34 -2.98 13.68 -4 13 C-3.50269348 8.02693484 -2.44697666 4.36200187 0 0 Z " fill="#262328" transform="translate(345,199)"/>
<path d="M0 0 C0 3.33896168 -0.59422625 4.40480889 -2.3125 7.1875 C-2.95638672 8.26064453 -2.95638672 8.26064453 -3.61328125 9.35546875 C-4.07089844 9.89816406 -4.52851562 10.44085938 -5 11 C-5.99 11 -6.98 11 -8 11 C-6.46457536 6.52167812 -4.39145948 2.19572974 0 0 Z " fill="#AFA4F9" transform="translate(58,112)"/>
<path d="M0 0 C0.33 0 0.66 0 1 0 C1.28571429 7.42857143 1.28571429 7.42857143 -1 11 C-1.66 11 -2.32 11 -3 11 C-2.88590407 9.54077307 -2.75834456 8.08259402 -2.625 6.625 C-2.55539063 5.81289062 -2.48578125 5.00078125 -2.4140625 4.1640625 C-2 2 -2 2 0 0 Z " fill="#212020" transform="translate(231,226)"/>
<path d="M0 0 C0.33 0 0.66 0 1 0 C0.67 3.96 0.34 7.92 0 12 C-0.99 11.67 -1.98 11.34 -3 11 C-2.69217504 9.35328588 -2.37860766 7.70764424 -2.0625 6.0625 C-1.88847656 5.14597656 -1.71445312 4.22945313 -1.53515625 3.28515625 C-1 1 -1 1 0 0 Z " fill="#0E0E0D" transform="translate(298,297)"/>
<path d="M0 0 C0.33 0.66 0.66 1.32 1 2 C1.66 2 2.32 2 3 2 C2.67 4.64 2.34 7.28 2 10 C1.01 9.67 0.02 9.34 -1 9 C-0.67 6.03 -0.34 3.06 0 0 Z " fill="#1C1033" transform="translate(180,251)"/>
<path d="M0 0 C0.33 0.66 0.66 1.32 1 2 C1.66 2 2.32 2 3 2 C2.67 4.64 2.34 7.28 2 10 C1.01 9.67 0.02 9.34 -1 9 C-0.67 6.03 -0.34 3.06 0 0 Z " fill="#333130" transform="translate(308,243)"/>
<path d="M0 0 C0.33 0.66 0.66 1.32 1 2 C1.66 2 2.32 2 3 2 C2.67 4.64 2.34 7.28 2 10 C1.01 9.67 0.02 9.34 -1 9 C-0.67 6.03 -0.34 3.06 0 0 Z " fill="#1C1034" transform="translate(197,171)"/>
<path d="M0 0 C0.99 0 1.98 0 3 0 C2.34 2.97 1.68 5.94 1 9 C0.34 9 -0.32 9 -1 9 C-0.67 6.03 -0.34 3.06 0 0 Z " fill="#0C0717" transform="translate(199,164)"/>
<path d="M0 0 C0.33 0.99 0.66 1.98 1 3 C1.66 3 2.32 3 3 3 C2.67 5.64 2.34 8.28 2 11 C1.01 10.34 0.02 9.68 -1 9 C-0.67 6.03 -0.34 3.06 0 0 Z " fill="#353038" transform="translate(247,163)"/>
<path d="M0 0 C0.33 0.66 0.66 1.32 1 2 C1.66 2 2.32 2 3 2 C2.67 4.64 2.34 7.28 2 10 C1.01 9.34 0.02 8.68 -1 8 C-0.67 5.36 -0.34 2.72 0 0 Z " fill="#1B1032" transform="translate(274,295)"/>
<path d="M0 0 C0.33 0.66 0.66 1.32 1 2 C1.66 2 2.32 2 3 2 C2.67 4.64 2.34 7.28 2 10 C1.01 9.34 0.02 8.68 -1 8 C-0.67 5.36 -0.34 2.72 0 0 Z " fill="#1B1032" transform="translate(281,262)"/>
<path d="M0 0 C0.33 0.66 0.66 1.32 1 2 C1.66 2 2.32 2 3 2 C2.67 4.64 2.34 7.28 2 10 C1.01 9.34 0.02 8.68 -1 8 C-0.67 5.36 -0.34 2.72 0 0 Z " fill="#2F2E2D" transform="translate(202,255)"/>
<path d="M0 0 C0.33 0.66 0.66 1.32 1 2 C1.66 2 2.32 2 3 2 C2.67 4.64 2.34 7.28 2 10 C1.01 9.34 0.02 8.68 -1 8 C-0.67 5.36 -0.34 2.72 0 0 Z " fill="#1C1033" transform="translate(288,229)"/>
<path d="M0 0 C0.33 0 0.66 0 1 0 C1 2.64 1 5.28 1 8 C0.01 8.33 -0.98 8.66 -2 9 C-1.125 1.125 -1.125 1.125 0 0 Z " fill="#0A0613" transform="translate(291,222)"/>
<path d="M0 0 C0.33 0.66 0.66 1.32 1 2 C1.66 2 2.32 2 3 2 C2.67 4.64 2.34 7.28 2 10 C1.01 9.34 0.02 8.68 -1 8 C-0.67 5.36 -0.34 2.72 0 0 Z " fill="#312F2E" transform="translate(218,180)"/>
<path d="M0 0 C0.33 0.66 0.66 1.32 1 2 C1.66 2 2.32 2 3 2 C2.67 4.64 2.34 7.28 2 10 C1.01 9.34 0.02 8.68 -1 8 C-0.67 5.36 -0.34 2.72 0 0 Z " fill="#180E2C" transform="translate(277,281)"/>
<path d="M0 0 C0.33 0.66 0.66 1.32 1 2 C1.66 2 2.32 2 3 2 C2.67 4.64 2.34 7.28 2 10 C1.01 9.34 0.02 8.68 -1 8 C-0.67 5.36 -0.34 2.72 0 0 Z " fill="#190E2D" transform="translate(176,270)"/>
<path d="M0 0 C0.33 0 0.66 0 1 0 C1.125 6.75 1.125 6.75 0 9 C-0.66 9 -1.32 9 -2 9 C-1.125 1.125 -1.125 1.125 0 0 Z " fill="#06030C" transform="translate(284,255)"/>
<path d="M0 0 C0.33 0.66 0.66 1.32 1 2 C1.66 2 2.32 2 3 2 C2.67 4.64 2.34 7.28 2 10 C1.01 9.34 0.02 8.68 -1 8 C-0.67 5.36 -0.34 2.72 0 0 Z " fill="#180E2D" transform="translate(284,248)"/>
<path d="M0 0 C0.33 0 0.66 0 1 0 C1.125 6.75 1.125 6.75 0 9 C-0.66 9 -1.32 9 -2 9 C-1.125 1.125 -1.125 1.125 0 0 Z " fill="#06040C" transform="translate(183,244)"/>
<path d="M0 0 C0.33 0.66 0.66 1.32 1 2 C1.66 2 2.32 2 3 2 C2.67 4.64 2.34 7.28 2 10 C1.01 9.34 0.02 8.68 -1 8 C-0.67 5.36 -0.34 2.72 0 0 Z " fill="#190E2E" transform="translate(183,237)"/>
<path d="M0 0 C0.33 0 0.66 0 1 0 C1.125 6.75 1.125 6.75 0 9 C-0.66 9 -1.32 9 -2 9 C-1.125 1.125 -1.125 1.125 0 0 Z " fill="#0C0C0B" transform="translate(311,236)"/>
<path d="M0 0 C0.33 0.66 0.66 1.32 1 2 C1.66 2 2.32 2 3 2 C2.67 4.64 2.34 7.28 2 10 C1.01 9.34 0.02 8.68 -1 8 C-0.67 5.36 -0.34 2.72 0 0 Z " fill="#2D2C2B" transform="translate(311,229)"/>
<path d="M0 0 C0.33 0 0.66 0 1 0 C1.125 6.75 1.125 6.75 0 9 C-0.66 9 -1.32 9 -2 9 C-1.125 1.125 -1.125 1.125 0 0 Z " fill="#07040C" transform="translate(186,230)"/>
<path d="M0 0 C0.33 0.66 0.66 1.32 1 2 C1.66 2 2.32 2 3 2 C2.67 4.64 2.34 7.28 2 10 C1.01 9.34 0.02 8.68 -1 8 C-0.67 5.36 -0.34 2.72 0 0 Z " fill="#190E2E" transform="translate(186,223)"/>
<path d="M0 0 C0.33 0.66 0.66 1.32 1 2 C1.66 2 2.32 2 3 2 C2.67 4.64 2.34 7.28 2 10 C1.01 9.34 0.02 8.68 -1 8 C-0.67 5.36 -0.34 2.72 0 0 Z " fill="#190E2E" transform="translate(291,215)"/>
<path d="M0 0 C0.33 0 0.66 0 1 0 C1.125 6.75 1.125 6.75 0 9 C-0.66 9 -1.32 9 -2 9 C-1.125 1.125 -1.125 1.125 0 0 Z " fill="#0C0C0C" transform="translate(214,206)"/>
<path d="M0 0 C0.33 0.66 0.66 1.32 1 2 C1.66 2 2.32 2 3 2 C2.67 4.64 2.34 7.28 2 10 C1.01 9.34 0.02 8.68 -1 8 C-0.67 5.36 -0.34 2.72 0 0 Z " fill="#190E2E" transform="translate(190,204)"/>
<path d="M0 0 C0.33 0 0.66 0 1 0 C1.125 6.75 1.125 6.75 0 9 C-0.66 9 -1.32 9 -2 9 C-1.125 1.125 -1.125 1.125 0 0 Z " fill="#07040C" transform="translate(193,197)"/>
<path d="M0 0 C0.33 0.66 0.66 1.32 1 2 C1.66 2 2.32 2 3 2 C2.67 4.64 2.34 7.28 2 10 C1.01 9.34 0.02 8.68 -1 8 C-0.67 5.36 -0.34 2.72 0 0 Z " fill="#190F2E" transform="translate(193,190)"/>
<path d="M0 0 C0 0.99 0 1.98 0 3 C-1.75 4.60546875 -1.75 4.60546875 -4 6.1875 C-4.7425 6.71730469 -5.485 7.24710937 -6.25 7.79296875 C-6.8275 8.19128906 -7.405 8.58960937 -8 9 C-6.1144852 4.71640327 -3.64034299 2.84896408 0 0 Z " fill="#772EFF" transform="translate(107,58)"/>
<path d="M0 0 C0.33 0.66 0.66 1.32 1 2 C1.66 2 2.32 2 3 2 C2.67 3.98 2.34 5.96 2 8 C1.01 8 0.02 8 -1 8 C-0.67 5.36 -0.34 2.72 0 0 Z " fill="#252323" transform="translate(214,199)"/>
</svg>
