<?xml version="1.0" standalone="no"?>
<!DOCTYPE svg PUBLIC "-//W3C//DTD SVG 20010904//EN"
 "http://www.w3.org/TR/2001/REC-SVG-20010904/DTD/svg10.dtd">
<svg version="1.0" xmlns="http://www.w3.org/2000/svg"
 width="512.000000pt" height="512.000000pt" viewBox="0 0 512.000000 512.000000"
 preserveAspectRatio="xMidYMid meet">

<g transform="translate(0.000000,512.000000) scale(0.100000,-0.100000)"
fill="#000000" stroke="none">
<path d="M1724 4790 c-212 -9 -321 -22 -459 -55 -378 -90 -663 -328 -817 -683
-111 -255 -134 -572 -125 -1707 7 -814 17 -950 89 -1174 122 -385 427 -672
822 -776 153 -40 287 -54 626 -66 364 -13 1488 -6 1685 11 411 34 688 153 905
388 198 214 295 458 330 827 17 170 24 1411 11 1750 -17 433 -46 593 -145 800
-113 235 -291 418 -521 532 -203 101 -380 137 -758 153 -262 11 -1368 11
-1643 0z m1646 -400 c304 -19 435 -46 580 -117 81 -39 109 -60 185 -137 177
-179 229 -340 256 -790 14 -250 7 -1596 -10 -1746 -17 -144 -48 -294 -76 -363
-95 -235 -295 -403 -549 -458 -200 -44 -317 -50 -1032 -56 -900 -7 -1198 8
-1422 73 -252 72 -451 277 -516 530 -51 202 -66 465 -66 1224 0 784 15 1052
71 1258 70 260 275 459 545 528 93 23 307 51 439 57 189 8 1450 6 1595 -3z"/>
<path d="M3645 3999 c-22 -11 -56 -36 -77 -56 -110 -108 -102 -293 19 -392 78
-64 201 -78 290 -33 52 27 116 100 131 150 42 139 -17 276 -143 333 -56 26
-167 25 -220 -2z"/>
<path d="M2395 3699 c-92 -13 -230 -56 -323 -99 -719 -337 -885 -1288 -322
-1850 447 -448 1177 -449 1621 -1 133 135 221 276 279 451 182 543 -73 1147
-591 1394 -206 99 -444 137 -664 105z m365 -419 c130 -37 224 -93 325 -195
101 -101 159 -198 194 -322 90 -326 -49 -671 -338 -843 -406 -241 -934 -46
-1086 401 -152 445 135 906 610 983 61 9 221 -4 295 -24z"/>
</g>
</svg>
